<?xml version="1.0" standalone="no"?><!-- Generator: Adobe Fireworks CS6, Export SVG Extension by Aaron Beall (http://fireworks.abeall.com) . Version: 0.6.1  --><!DOCTYPE svg PUBLIC "-//W3C//DTD SVG 1.1//EN" "http://www.w3.org/Graphics/SVG/1.1/DTD/svg11.dtd"><svg id="logo-v2-Page%201" viewBox="0 0 1013 487" style="background-color:#ffffff00" version="1.1"	xmlns="http://www.w3.org/2000/svg" xmlns:xlink="http://www.w3.org/1999/xlink" xml:space="preserve"	x="0px" y="0px" width="1013px" height="487px">	<g id="Layer%201">		<path id="sthlm" d="M 986.3723 323.4154 C 980.5804 323.4154 975.9263 321.5454 972.4098 317.8086 C 968.8932 314.0718 967.135 309.0081 967.135 302.6191 C 967.135 296.2319 968.4795 286.8181 971.1686 274.3812 L 974.7887 258.0704 C 977.7526 244.6826 979.236 236.4252 979.236 233.2985 C 979.236 225.0762 975.9603 220.9634 969.4104 220.9634 C 962.1704 220.9634 954.6881 225.5349 946.9667 234.6747 C 939.2438 243.816 933.8317 253.381 930.7286 263.3715 L 927.3157 278.3569 C 926.4187 282.1638 925.1777 289.6057 923.5923 300.6823 C 922.0055 311.7606 921.2135 318.6592 921.2135 321.3766 L 901.0453 321.3766 C 901.0453 318.2514 901.9407 311.0294 903.7344 299.7139 C 905.5266 288.3983 907.0439 279.9545 908.2852 274.3812 L 913.1461 252.7695 C 915.2148 244.3433 916.2491 237.8524 916.2491 233.2985 C 916.2491 225.0762 913.0073 220.9634 906.527 220.9634 C 898.6666 220.9634 890.5813 226.2485 882.2733 236.8154 C 873.9635 247.384 868.7068 257.7646 866.5007 267.9588 L 855.1239 321.3766 L 835.3694 321.3766 L 853.1587 237.4781 C 853.9862 233.6042 854.3997 230.4791 854.3997 228.0994 C 854.3997 221.5082 849.4692 218.211 839.6099 218.211 L 837.955 218.211 L 839.8167 209.444 L 879.0155 209.444 L 873.3269 235.7451 L 875.3955 235.7451 C 886.8401 216.9877 899.7008 207.609 913.9735 207.609 C 929.074 207.609 936.624 215.3232 936.624 230.7499 C 936.624 232.4495 936.4851 234.114 936.2106 235.7451 L 938.2788 235.7451 C 949.7931 216.9877 962.6521 207.609 976.8572 207.609 C 991.9574 207.609 999.5077 215.3232 999.5077 230.7499 C 999.5077 235.1685 998.231 242.8141 995.6808 253.687 L 990.1992 278.3569 C 988.4053 286.4454 987.5101 293.7502 987.5101 300.2745 C 987.5101 306.9358 989.9568 310.2649 994.8533 310.2649 C 998.9209 310.2649 1003.4379 308.6688 1008.4023 305.4736 L 1012.229 311.5901 C 1003.2649 319.4747 994.6466 323.4154 986.3723 323.4154 ZM 792.9685 299.6628 C 792.9685 306.7319 795.3118 310.2649 800.0013 310.2649 C 804.069 310.2649 809.1368 308.465 815.2051 304.8619 L 819.032 310.9785 C 809.2404 319.2709 799.691 323.4154 790.3826 323.4154 C 785.2793 323.4154 781.0905 321.5804 777.8163 317.9105 C 774.5408 314.2406 772.9037 309.4844 772.9037 303.6387 C 772.9037 297.0474 774.455 286.1046 777.5579 270.8132 L 794.8301 190.6866 C 795.7253 186.542 796.1748 183.4153 796.1748 181.3079 C 796.1748 174.7836 791.2101 171.5214 781.2813 171.5214 L 778.799 171.5214 L 780.6605 162.7544 L 820.6866 162.7544 L 796.1748 276.522 C 794.0365 286.4454 792.9685 294.158 792.9685 299.6628 ZM 723.6768 323.4154 C 717.8153 323.4154 713.1432 321.5454 709.6625 317.8086 C 706.1797 314.0718 704.4393 309.0081 704.4393 302.6191 C 704.4393 296.2319 705.7838 286.8181 708.473 274.3812 L 713.3339 252.7695 C 715.4026 244.3433 716.437 237.8524 716.437 233.2985 C 716.437 225.0762 713.1951 220.9634 706.7147 220.9634 C 698.8544 220.9634 690.7692 226.2485 682.4612 236.8154 C 674.1514 247.384 668.8945 257.7646 666.6886 267.9588 L 655.3115 321.3766 L 635.5573 321.3766 L 663.0685 192.3177 C 664.3777 186.2012 665.0338 182.5312 665.0338 181.3079 C 665.0338 174.7836 660.0695 171.5214 650.1404 171.5214 L 648.4854 171.5214 L 650.347 162.7544 L 689.3391 162.7544 L 681.0649 201.0847 C 678.5828 212.5023 675.7899 224.0568 672.6873 235.7451 L 674.9629 235.7451 C 686.6838 216.9877 699.7494 207.609 714.1614 207.609 C 729.2617 207.609 736.8119 215.3232 736.8119 230.7499 C 736.8119 235.1685 735.5353 242.8141 732.985 253.687 L 727.5034 278.3569 C 725.6418 286.7162 724.7111 294.0226 724.7111 300.2745 C 724.7111 306.9358 727.1931 310.2649 732.1578 310.2649 C 736.2253 310.2649 740.7421 308.6688 745.7067 305.4736 L 749.5333 311.5901 C 740.2928 319.4747 731.6746 323.4154 723.6768 323.4154 ZM 620.254 221.3712 L 594.6042 221.3712 L 581.7792 280.9055 C 580.0549 288.9255 579.1936 294.9066 579.1936 298.8473 C 579.1936 306.4596 582.9508 310.2649 590.4672 310.2649 C 596.1896 310.2649 601.9474 308.7357 607.7394 305.6774 L 611.3593 313.425 C 601.8441 320.0863 592.3289 323.4154 582.8135 323.4154 C 567.4369 323.4154 559.7494 315.2951 559.7494 299.0512 C 559.7494 293.8187 560.4377 287.9745 561.8177 281.5172 L 574.7462 221.3712 L 558.6116 221.3712 L 560.5767 213.012 C 574.3666 213.012 585.1567 203.2606 592.9492 183.7545 L 602.6714 183.7545 L 597.1897 209.444 L 622.8397 209.444 L 620.254 221.3712 ZM 518.1761 240.3325 C 518.1761 233.3335 516.5034 227.7267 513.1599 223.512 C 509.8147 219.2989 505.1443 217.1915 499.1455 217.1915 C 492.801 217.1915 487.7847 218.8737 484.0969 222.2377 C 480.4075 225.6018 478.5637 229.9009 478.5637 235.1334 C 478.5637 239.7559 480.3219 243.6966 483.8384 246.9587 C 487.355 250.2209 492.801 253.4496 500.1797 256.6432 C 517.1418 264.1201 525.6228 274.9259 525.6228 289.0609 C 525.6228 299.3236 521.623 307.6144 513.6254 313.9348 C 505.6259 320.2552 495.0084 323.4154 481.77 323.4154 C 471.0813 323.4154 462.5842 321.2922 456.2751 317.0441 C 449.9662 312.7975 446.8115 307.0712 446.8115 299.8668 C 446.8115 295.3813 448.069 291.9662 450.5867 289.6215 C 453.1028 287.2769 456.2913 286.1046 460.1536 286.1046 C 460.1536 294.7362 462.2739 301.4468 466.5144 306.2382 C 470.7549 311.0294 476.702 313.425 484.3555 313.425 C 499.593 313.425 507.2129 306.9692 507.2129 294.056 C 507.2129 289.0959 505.5918 284.8987 502.3516 281.4662 C 499.1099 278.0352 493.5945 274.5516 485.8035 271.0171 C 475.6675 266.2609 468.8577 261.3501 465.3767 256.2864 C 461.894 251.2244 460.1536 245.3627 460.1536 238.7014 C 460.1536 229.5951 463.9287 222.1357 471.4789 216.3251 C 479.0289 210.5143 488.8708 207.609 501.0071 207.609 C 511.4177 207.609 519.5369 209.5125 525.3641 213.3177 C 531.1901 217.1247 534.1038 221.814 534.1038 227.3858 C 534.1038 236.0175 528.7935 240.3325 518.1761 240.3325 Z" fill="#ffffff"/>		<image x="0" y="0" width="422" height="487" xlink:href="logo_white.svg.images/image1.png"/>		<path d="M 420.5 122.5 L 420.5 363.5 L 370.5 393.5 L 284.5 260.5 L 248.5 316.5 L 215.5 316.5 L 264.5 239.5 L 218.5 168.5 L 252.5 168.5 L 285.5 221.5 L 317.5 168.5 L 350.5 168.5 L 304.5 241.5 L 379.5 354.5 C 385.5 351.5 394.5 351 392.5 344 C 392.5 342 392.5 336.5 392.5 334.5 L 391.5 139.5 L 210.5 35.5 L 132.5 79.5 L 132.5 47.5 L 211.5 2.5 L 420.5 122.5 ZM 99.5 264.5 C 98.5 285.5 116.5 293.5 130.5 293.5 C 147.5 293.5 161.5 282.5 161.5 258.5 L 161.5 168.5 L 191.5 168.5 L 191.5 270.5 C 185.5 308.5 154.5 318.5 129.5 318.5 C 101.5 318.5 68.5 303.5 68.5 267.5 L 67.5 117.5 L 30.5 139.5 L 30.5 347.5 L 210.5 451.5 L 323.5 386.5 L 338.5 410.5 L 211.5 484.5 C 174.5 463.5 137.5 441.5 100.5 420.5 C 68.5 401.5 35.5 383.5 3.5 364.5 C 2.5 363.5 1.5 360.5 1.5 358.5 L 1.5 142.5 C 2.5 137.5 2.5 130.5 2.5 123.5 C 33.5 104.5 66.5 85.5 99.5 65.5 L 99.5 264.5 Z" fill="#ffffff"/>	</g></svg>